<?xml version="1.0" encoding="UTF-8"?><svg id="Layer_4" xmlns="http://www.w3.org/2000/svg" viewBox="0 0 612 792"><defs><style>.cls-1{fill:#a16e39;}.cls-2{fill:#b48354;}.cls-3{fill:#e19292;}.cls-4{fill:#432c1f;}.cls-5{fill:#45251b;}.cls-6{fill:#29150f;}</style></defs><path class="cls-1" d="m553.43,226.61c-1.26,9.69-4.01,16.88-5.23,19.56-3.86,8.49-29.74,29.11-34.37,29.11s-131.57-76.87-131.57-76.87c0,0-.5-30.65,9.46-47.24l161.71,75.45Z"/><path class="cls-6" d="m391.07,151.48c2.38-3.96,5.35-7.43,9.07-9.96,19.29-13.12,47.08-27.01,108.82,7.72,42.29,23.79,46.56,56.63,43.82,77.69l-161.71-75.45Z"/><path class="cls-3" d="m415.44,206.18s-7.2-20.48,4.43-32.66,37.64-12.73,63.1,0,47.05,45.39,31,62.54-19.93,16.05-19.93,16.05l-78.59-45.94Z"/><path class="cls-1" d="m51.42,226.61c1.26,9.69,4.01,16.88,5.23,19.56,3.86,8.49,29.74,29.11,34.37,29.11s131.57-76.87,131.57-76.87c0,0,.5-30.65-9.46-47.24L51.42,226.61Z"/><path class="cls-6" d="m213.79,151.48c-2.38-3.96-5.35-7.43-9.07-9.96-19.29-13.12-47.08-27.01-108.82,7.72-42.29,23.79-46.56,56.63-43.82,77.69l161.71-75.45Z"/><path class="cls-3" d="m189.41,206.18s7.2-20.48-4.43-32.66-37.64-12.73-63.1,0-47.05,45.39-31,62.54,19.93,16.05,19.93,16.05l78.59-45.94Z"/><path class="cls-2" d="m21.76,450.11c0,95.28,81.84,165.66,283.27,165.66,223.15,0,271.38-70.38,271.38-165.66s-52.77-262.83-271.38-262.83S21.76,354.82,21.76,450.11Z"/><path class="cls-5" d="m493.24,301.58c-56.45-69.95-207.89-65.11-207.89-65.11v.07c-34.7.7-134.23,7.83-180.41,65.04-56.45,69.95-61.36,146.03-25.77,179.16,35.59,33.13,105.53,14.73,138.66-19.63,22.76-23.6,55.85-28.1,74.34-28.6v.37s2.58-.28,6.92-.39c4.34.1,6.91.39,6.91.39l-.02-.37c18.49.5,51.6,4.98,74.37,28.6,33.13,34.36,103.08,52.77,138.66,19.63,35.59-33.13,30.68-109.21-25.77-179.16Z"/><circle class="cls-4" cx="299.09" cy="508.77" r="47.41"/></svg>